<svg width="251" height="235" viewBox="0 0 251 235" fill="none" xmlns="http://www.w3.org/2000/svg">
<path d="M246 117.5C246 179.327 192.366 230 125.5 230C58.6344 230 5 179.327 5 117.5C5 55.6731 58.6344 5 125.5 5C192.366 5 246 55.6731 246 117.5Z" stroke="white" stroke-width="10"/>
<path d="M104.829 179C103.869 179 102.621 177.784 101.085 175.352C99.5494 172.856 97.4054 168.92 94.6534 163.544C92.2854 158.936 90.3014 155.224 88.7014 152.408C87.1014 149.592 85.5654 147.256 84.0934 145.4L75.5494 155.192V172.28L83.8054 173.336V179H53.9494V173.24L61.5334 172.28V114.872L54.0454 113.624V107.672H82.9414V113.624L75.5494 114.872V146.168L100.797 114.872L92.9254 113.624V107.672H118.845V113.624L110.877 114.872L92.2534 135.8C94.4934 137.848 96.8614 140.76 99.3574 144.536C101.853 148.248 104.893 153.112 108.477 159.128C111.101 163.544 113.085 166.776 114.429 168.824C115.773 170.808 116.797 171.96 117.501 172.28L122.013 173.336V179H104.829ZM133.158 114.872L126.054 113.624V107.672H155.238V113.624L147.174 114.872V138.968H176.358V114.872L168.966 113.624V107.672H197.766V113.624L190.47 114.872V172.28L197.766 173.24V179H168.87V173.24L176.358 172.28V146.264H147.174V172.28L155.238 173.24V179H125.862V173.24L133.158 172.28V114.872Z" fill="white"/>
<path d="M111.38 56.178L98.27 62.562L111.38 69.022V72.974L93.406 63.702V61.46L111.38 52.15V56.178Z" fill="white"/>
<path d="M140.62 56.178L153.73 62.562L140.62 69.022V72.974L158.594 63.702V61.46L140.62 52.15V56.178Z" fill="white"/>
<rect x="129.425" y="39.6348" width="8.66173" height="29.6974" transform="rotate(20 129.425 39.6348)" fill="white"/>
<path d="M119.814 78.7038L127.333 73.7114L117.263 70.0463L119.814 78.7038Z" fill="white"/>
</svg>
