<svg xmlns="http://www.w3.org/2000/svg" version="1.1" xmlns:xlink="http://www.w3.org/1999/xlink" xmlns:svgjs="http://svgjs.com/svgjs" width="200" height="260"><svg width="200" height="260" viewBox="0 0 200 260" fill="none" xmlns="http://www.w3.org/2000/svg">
<path d="M99.2849 0.213379L113.098 14.0269L13.8135 113.312L-3.03205e-05 99.4983L99.2849 0.213379Z" fill="#EEC283"></path>
<path d="M86 13.8135L99.8136 -8.07294e-05L199.098 99.2849L185.285 113.098L86 13.8135Z" fill="#EEC283"></path>
<path d="M143 64H162.535V209.294L143 225.166V64Z" fill="#EEC283"></path>
<path d="M56.5353 64H37L37 209.294L56.5353 225.166L56.5353 64Z" fill="#EEC283"></path>
<rect x="37" y="142.54" width="19.54" height="125" transform="rotate(-90 37 142.54)" fill="#EEC283"></rect>
<path d="M90.3508 27.0747H109.886C109.886 117.669 109.886 158.453 109.886 249.047L100.118 259.057L90.3508 249.047V27.0747Z" fill="#EEC283"></path>
</svg><style>@media (prefers-color-scheme: light) { :root { filter: none; } }
</style></svg>