<svg width="500" height="500" viewBox="0 0 500 500" fill="none" xmlns="http://www.w3.org/2000/svg">
<circle cx="250" cy="250" r="250" fill="black"/>
<path d="M90.6286 379.96L88.3786 379.57V377.71H92.9086C93.3286 377.71 93.9786 377.69 94.8586 377.65C96.0186 377.57 97.0686 377.53 98.0086 377.53C100.089 377.53 101.729 377.79 102.929 378.31C104.149 378.81 105.009 379.54 105.509 380.5C106.029 381.44 106.289 382.64 106.289 384.1C106.289 386.62 105.499 388.58 103.919 389.98C102.359 391.38 100.189 392.08 97.4086 392.08C96.3086 392.08 95.5186 392.05 95.0386 391.99V397.9L99.0586 398.2V400H88.2586V398.2L90.6286 397.9V379.96ZM95.0086 390.07C95.4686 390.17 96.2486 390.22 97.3486 390.22C98.6886 390.22 99.7586 389.76 100.559 388.84C101.379 387.9 101.789 386.35 101.789 384.19C101.789 382.51 101.419 381.29 100.679 380.53C99.9586 379.75 98.8486 379.36 97.3486 379.36C96.7886 379.36 96.2086 379.4 95.6086 379.48C95.3286 379.52 95.1286 379.54 95.0086 379.54V390.07ZM121.083 377.59H125.673L132.603 397.9L134.343 398.2V400H125.493V398.2L127.743 397.9L126.573 394H118.803L117.633 397.93L120.063 398.2V400H112.413L112.383 398.2L114.183 397.9L121.083 377.59ZM123.153 382.66L122.613 380.32L122.043 382.69L119.373 391.9H125.973L123.153 382.66ZM143.527 379.96L141.217 379.57V377.71H150.817V379.57L147.937 379.96V397.87L154.357 397.6L156.247 391.99L158.677 392.32L157.747 400H141.157V398.2L143.527 397.9V379.96ZM169.888 379.96L166.648 379.57V377.71H176.008L179.578 390.61L180.418 394.12L181.138 390.61L184.678 377.71H193.948V379.57L190.678 379.96L193.078 397.87L195.508 398.2V400H185.938V398.2L188.578 397.9L187.258 384.76L186.688 379.27L185.578 383.89L181.228 399.07H178.048L173.608 384.67L172.078 379.27L171.628 384.76L170.488 397.9L173.518 398.2V400H165.178V398.2L167.698 397.9L169.888 379.96ZM209.236 391.15L202.816 379.96L201.106 379.57V377.71H209.926V379.57L207.796 379.96L211.546 387.31L212.386 389.38L213.256 387.31L216.706 379.96L214.366 379.57V377.71H221.686V379.57L219.826 379.93L213.856 391.12V397.9L217.126 398.2V400H206.056V398.2L209.236 397.9V391.15ZM228.297 398.2L230.667 397.9V379.96L228.417 379.54V377.71H232.767C233.147 377.71 233.567 377.7 234.027 377.68C234.487 377.66 234.837 377.64 235.077 377.62C236.117 377.54 236.977 377.5 237.657 377.5C239.717 377.5 241.367 377.71 242.607 378.13C243.847 378.55 244.747 379.19 245.307 380.05C245.867 380.91 246.147 382.04 246.147 383.44C246.147 384.82 245.777 386.1 245.037 387.28C244.297 388.46 243.227 389.27 241.827 389.71C242.627 390.05 243.337 390.67 243.957 391.57C244.577 392.47 245.237 393.64 245.937 395.08C246.437 396.06 246.817 396.77 247.077 397.21C247.357 397.63 247.627 397.87 247.887 397.93L248.877 398.23V400H243.777C243.457 400 243.117 399.68 242.757 399.04C242.417 398.38 241.967 397.35 241.407 395.95C240.747 394.31 240.177 393.03 239.697 392.11C239.217 391.19 238.707 390.62 238.167 390.4H235.077V397.9L237.837 398.2V400H228.297V398.2ZM237.837 388.57C238.977 388.57 239.867 388.16 240.507 387.34C241.147 386.52 241.467 385.29 241.467 383.65C241.467 382.19 241.147 381.11 240.507 380.41C239.887 379.71 238.807 379.36 237.267 379.36C236.707 379.36 236.227 379.39 235.827 379.45C235.447 379.49 235.197 379.51 235.077 379.51V388.51C235.317 388.55 235.897 388.57 236.817 388.57H237.837ZM262.938 377.59H267.528L274.458 397.9L276.198 398.2V400H267.348V398.2L269.598 397.9L268.428 394H260.658L259.488 397.93L261.918 398.2V400H254.268L254.238 398.2L256.038 397.9L262.938 377.59ZM265.008 382.66L264.468 380.32L263.898 382.69L261.228 391.9H267.828L265.008 382.66ZM298.472 379.96L296.072 379.57V377.71H312.062L312.452 382.75H310.352L309.362 379.78L302.882 379.51V387.58L307.052 387.49L307.532 385.03H309.452V392.29H307.532L307.052 389.71L302.882 389.62V398.08L310.142 397.72L311.882 393.88L314.132 394.51L313.352 400H296.102V398.2L298.472 397.9V379.96ZM302.732 375.01L306.632 370.54L309.662 372.43C308.982 373.21 308.142 373.96 307.142 374.68C306.162 375.38 305.322 375.87 304.622 376.15L302.732 375.01ZM324.16 379.96L321.91 379.57V377.71H326.44C326.86 377.71 327.51 377.69 328.39 377.65C329.55 377.57 330.6 377.53 331.54 377.53C333.62 377.53 335.26 377.79 336.46 378.31C337.68 378.81 338.54 379.54 339.04 380.5C339.56 381.44 339.82 382.64 339.82 384.1C339.82 386.62 339.03 388.58 337.45 389.98C335.89 391.38 333.72 392.08 330.94 392.08C329.84 392.08 329.05 392.05 328.57 391.99V397.9L332.59 398.2V400H321.79V398.2L324.16 397.9V379.96ZM328.54 390.07C329 390.17 329.78 390.22 330.88 390.22C332.22 390.22 333.29 389.76 334.09 388.84C334.91 387.9 335.32 386.35 335.32 384.19C335.32 382.51 334.95 381.29 334.21 380.53C333.49 379.75 332.38 379.36 330.88 379.36C330.32 379.36 329.74 379.4 329.14 379.48C328.86 379.52 328.66 379.54 328.54 379.54V390.07ZM350.354 379.96L347.804 379.57V377.71H357.404V379.57L354.764 379.96V397.9L357.404 398.23V400H347.804V398.2L350.354 397.9V379.96ZM350.174 375.01L354.074 370.54L357.104 372.43C356.424 373.21 355.584 373.96 354.584 374.68C353.604 375.38 352.764 375.87 352.064 376.15L350.174 375.01ZM373.218 379.69L368.928 379.84L367.758 386.38H365.238L365.748 377.71H385.098L385.458 386.38H383.088L381.918 379.84L377.688 379.69V397.9L381.888 398.2V400H369.378V398.2L373.218 397.9V379.69ZM402.765 400.33C399.505 400.33 397.065 399.31 395.445 397.27C393.825 395.23 393.015 392.45 393.015 388.93C393.015 386.63 393.435 384.61 394.275 382.87C395.135 381.13 396.335 379.79 397.875 378.85C399.415 377.91 401.185 377.44 403.185 377.44C406.485 377.44 408.955 378.42 410.595 380.38C412.255 382.32 413.085 385.04 413.085 388.54C413.085 390.86 412.645 392.92 411.765 394.72C410.905 396.5 409.695 397.88 408.135 398.86C406.575 399.84 404.785 400.33 402.765 400.33ZM403.065 379.27C401.425 379.27 400.145 380.08 399.225 381.7C398.305 383.32 397.845 385.72 397.845 388.9C397.845 392.04 398.285 394.43 399.165 396.07C400.065 397.69 401.345 398.5 403.005 398.5C404.625 398.5 405.895 397.65 406.815 395.95C407.735 394.23 408.195 391.76 408.195 388.54C408.195 385.42 407.755 383.1 406.875 381.58C405.995 380.04 404.725 379.27 403.065 379.27ZM403.935 372.34C403.395 372.98 402.645 373.66 401.685 374.38C400.745 375.1 399.885 375.68 399.105 376.12L397.515 374.77L401.625 370.51L403.935 372.34ZM411.315 372.37C410.795 373.03 410.055 373.72 409.095 374.44C408.135 375.14 407.245 375.7 406.425 376.12L404.805 374.74L409.125 370.54L411.315 372.37Z" fill="#EEC283"/>
<path d="M249.285 92.2135L263.098 106.027L163.814 205.312L150 191.498L249.285 92.2135Z" fill="#EEC283"/>
<path d="M236 105.814L249.814 92L349.098 191.285L335.285 205.098L236 105.814Z" fill="#EEC283"/>
<path d="M293 156H312.535V301.294L293 317.166V156Z" fill="#EEC283"/>
<path d="M206.535 156H187V301.294L206.535 317.166V156Z" fill="#EEC283"/>
<rect x="187" y="234.54" width="19.54" height="125" transform="rotate(-90 187 234.54)" fill="#EEC283"/>
<path d="M240.351 119.075H259.886C259.886 209.669 259.886 250.453 259.886 341.047L250.118 351.057L240.351 341.047V119.075Z" fill="#EEC283"/>
</svg>
