<svg width="793" height="150" viewBox="0 0 793 150" fill="none" xmlns="http://www.w3.org/2000/svg">
<path d="M146.257 64.92L141.757 64.14V60.42H150.817C151.657 60.42 152.957 60.38 154.717 60.3C157.037 60.14 159.137 60.06 161.017 60.06C165.177 60.06 168.457 60.58 170.857 61.62C173.297 62.62 175.017 64.08 176.017 66C177.057 67.88 177.577 70.28 177.577 73.2C177.577 78.24 175.997 82.16 172.837 84.96C169.717 87.76 165.377 89.16 159.817 89.16C157.617 89.16 156.037 89.1 155.077 88.98V100.8L163.117 101.4V105H141.517V101.4L146.257 100.8V64.92ZM155.017 85.14C155.937 85.34 157.497 85.44 159.697 85.44C162.377 85.44 164.517 84.52 166.117 82.68C167.757 80.8 168.577 77.7 168.577 73.38C168.577 70.02 167.837 67.58 166.357 66.06C164.917 64.5 162.697 63.72 159.697 63.72C158.577 63.72 157.417 63.8 156.217 63.96C155.657 64.04 155.257 64.08 155.017 64.08V85.14ZM207.165 60.18H216.345L230.205 100.8L233.685 101.4V105H215.985V101.4L220.485 100.8L218.145 93H202.605L200.265 100.86L205.125 101.4V105H189.825L189.765 101.4L193.365 100.8L207.165 60.18ZM211.305 70.32L210.225 65.64L209.085 70.38L203.745 88.8H216.945L211.305 70.32ZM252.054 64.92L247.434 64.14V60.42H266.634V64.14L260.874 64.92V100.74L273.714 100.2L277.494 88.98L282.354 89.64L280.494 105H247.314V101.4L252.054 100.8V64.92ZM304.776 64.92L298.296 64.14V60.42H317.016L324.156 86.22L325.836 93.24L327.276 86.22L334.356 60.42H352.896V64.14L346.356 64.92L351.156 100.74L356.016 101.4V105H336.876V101.4L342.156 100.8L339.516 74.52L338.376 63.54L336.156 72.78L327.456 103.14H321.096L312.216 74.34L309.156 63.54L308.256 74.52L305.976 100.8L312.036 101.4V105H295.356V101.4L300.396 100.8L304.776 64.92ZM383.472 87.3L370.632 64.92L367.212 64.14V60.42H384.852V64.14L380.592 64.92L388.092 79.62L389.772 83.76L391.512 79.62L398.412 64.92L393.732 64.14V60.42H408.372V64.14L404.652 64.86L392.712 87.24V100.8L399.252 101.4V105H377.112V101.4L383.472 100.8V87.3ZM421.594 101.4L426.334 100.8V64.92L421.834 64.08V60.42H430.534C431.294 60.42 432.134 60.4 433.054 60.36C433.974 60.32 434.674 60.28 435.154 60.24C437.234 60.08 438.954 60 440.314 60C444.434 60 447.734 60.42 450.214 61.26C452.694 62.1 454.494 63.38 455.614 65.1C456.734 66.82 457.294 69.08 457.294 71.88C457.294 74.64 456.554 77.2 455.074 79.56C453.594 81.92 451.454 83.54 448.654 84.42C450.254 85.1 451.674 86.34 452.914 88.14C454.154 89.94 455.474 92.28 456.874 95.16C457.874 97.12 458.634 98.54 459.154 99.42C459.714 100.26 460.254 100.74 460.774 100.86L462.754 101.46V105H452.554C451.914 105 451.234 104.36 450.514 103.08C449.834 101.76 448.934 99.7 447.814 96.9C446.494 93.62 445.354 91.06 444.394 89.22C443.434 87.38 442.414 86.24 441.334 85.8H435.154V100.8L440.674 101.4V105H421.594V101.4ZM440.674 82.14C442.954 82.14 444.734 81.32 446.014 79.68C447.294 78.04 447.934 75.58 447.934 72.3C447.934 69.38 447.294 67.22 446.014 65.82C444.774 64.42 442.614 63.72 439.534 63.72C438.414 63.72 437.454 63.78 436.654 63.9C435.894 63.98 435.394 64.02 435.154 64.02V82.02C435.634 82.1 436.794 82.14 438.634 82.14H440.674ZM490.876 60.18H500.056L513.916 100.8L517.396 101.4V105H499.696V101.4L504.196 100.8L501.856 93H486.316L483.976 100.86L488.836 101.4V105H473.536L473.476 101.4L477.076 100.8L490.876 60.18ZM495.016 70.32L493.936 65.64L492.796 70.38L487.456 88.8H500.656L495.016 70.32ZM561.943 64.92L557.143 64.14V60.42H589.123L589.903 70.5H585.703L583.723 64.56L570.763 64.02V80.16L579.103 79.98L580.063 75.06H583.903V89.58H580.063L579.103 84.42L570.763 84.24V101.16L585.283 100.44L588.763 92.76L593.263 94.02L591.703 105H557.203V101.4L561.943 100.8V64.92ZM570.463 55.02L578.263 46.08L584.323 49.86C582.963 51.42 581.283 52.92 579.283 54.36C577.323 55.76 575.643 56.74 574.243 57.3L570.463 55.02ZM613.32 64.92L608.82 64.14V60.42H617.88C618.72 60.42 620.02 60.38 621.78 60.3C624.1 60.14 626.2 60.06 628.08 60.06C632.24 60.06 635.52 60.58 637.92 61.62C640.36 62.62 642.08 64.08 643.08 66C644.12 67.88 644.64 70.28 644.64 73.2C644.64 78.24 643.06 82.16 639.9 84.96C636.78 87.76 632.44 89.16 626.88 89.16C624.68 89.16 623.1 89.1 622.14 88.98V100.8L630.18 101.4V105H608.58V101.4L613.32 100.8V64.92ZM622.08 85.14C623 85.34 624.56 85.44 626.76 85.44C629.44 85.44 631.58 84.52 633.18 82.68C634.82 80.8 635.64 77.7 635.64 73.38C635.64 70.02 634.9 67.58 633.42 66.06C631.98 64.5 629.76 63.72 626.76 63.72C625.64 63.72 624.48 63.8 623.28 63.96C622.72 64.04 622.32 64.08 622.08 64.08V85.14ZM665.708 64.92L660.608 64.14V60.42H679.808V64.14L674.528 64.92V100.8L679.808 101.46V105H660.608V101.4L665.708 100.8V64.92ZM665.348 55.02L673.148 46.08L679.208 49.86C677.848 51.42 676.168 52.92 674.168 54.36C672.208 55.76 670.528 56.74 669.128 57.3L665.348 55.02ZM711.436 64.38L702.856 64.68L700.516 77.76H695.476L696.496 60.42H735.196L735.916 77.76H731.176L728.836 64.68L720.376 64.38V100.8L728.776 101.4V105H703.756V101.4L711.436 100.8V64.38ZM770.53 105.66C764.01 105.66 759.13 103.62 755.89 99.54C752.65 95.46 751.03 89.9 751.03 82.86C751.03 78.26 751.87 74.22 753.55 70.74C755.27 67.26 757.67 64.58 760.75 62.7C763.83 60.82 767.37 59.88 771.37 59.88C777.97 59.88 782.91 61.84 786.19 65.76C789.51 69.64 791.17 75.08 791.17 82.08C791.17 86.72 790.29 90.84 788.53 94.44C786.81 98 784.39 100.76 781.27 102.72C778.15 104.68 774.57 105.66 770.53 105.66ZM771.13 63.54C767.85 63.54 765.29 65.16 763.45 68.4C761.61 71.64 760.69 76.44 760.69 82.8C760.69 89.08 761.57 93.86 763.33 97.14C765.13 100.38 767.69 102 771.01 102C774.25 102 776.79 100.3 778.63 96.9C780.47 93.46 781.39 88.52 781.39 82.08C781.39 75.84 780.51 71.2 778.75 68.16C776.99 65.08 774.45 63.54 771.13 63.54ZM772.87 49.68C771.79 50.96 770.29 52.32 768.37 53.76C766.49 55.2 764.77 56.36 763.21 57.24L760.03 54.54L768.25 46.02L772.87 49.68ZM787.63 49.74C786.59 51.06 785.11 52.44 783.19 53.88C781.27 55.28 779.49 56.4 777.85 57.24L774.61 54.48L783.25 46.08L787.63 49.74Z" fill="#EEC283"/>
<path fill-rule="evenodd" clip-rule="evenodd" d="M21.4239 52.1849L7.9984 65.6104L1.84309e-05 57.612L57.4884 0.123596L57.5796 0.214829L57.7945 0L115.283 57.4884L107.284 65.4868L94.1119 52.3142V121.186L82.8004 130.377V82.5341H63.6267V144.204L57.971 150L52.3153 144.204V82.5341H32.7353V130.377L21.4239 121.186L21.4239 82.5341V71.22L21.4239 52.1849ZM63.6267 71.22H82.8004V41.0027L63.6267 21.829V71.22ZM52.3153 21.2935V71.22H32.7353V40.8734L52.3153 21.2935Z" fill="#EEC283"/>
</svg>
